<?xml version="1.0" encoding="utf-8"?>
<!-- Generator: Adobe Illustrator 24.3.0, SVG Export Plug-In . SVG Version: 6.00 Build 0)  -->
<svg version="1.1" id="Layer_1" xmlns="http://www.w3.org/2000/svg" xmlns:xlink="http://www.w3.org/1999/xlink" x="0px" y="0px"
	 viewBox="0 0 512 512" style="enable-background:new 0 0 512 512;" xml:space="preserve">
<style type="text/css">
	.st0{fill:#F0BC5E;}
</style>
<g>
	<g>
		<path class="st0" d="M459.716,239.842c-0.543-7.535-7.082-13.191-14.628-12.661c-7.536,0.543-13.204,7.092-12.662,14.628
			c0.337,4.655,0.506,9.431,0.506,14.191c0,109.061-88.726,197.787-197.786,197.787S37.36,365.06,37.36,256
			S126.086,58.214,235.147,58.214c43.191,0,84.21,13.668,118.62,39.525c6.041,4.538,14.615,3.321,19.154-2.718
			c4.54-6.04,3.323-14.616-2.717-19.154c-39.189-29.447-85.891-45.012-135.058-45.012C111.001,30.854,10,131.855,10,256
			s101.001,225.145,225.147,225.145S460.292,380.146,460.292,256C460.292,250.586,460.097,245.15,459.716,239.842z"/>
	</g>
</g>
<g>
	<g>
		<path d="M497.7394,132.2732L247.731,400.6305c-2.1565,2.3148-5.6854,2.3148-7.842,0L117.81,269.5917
			c-10.14-10.8842-10.14-28.5952,0-39.4794c5.07-5.4528,11.73-8.1685,18.39-8.1685c6.66,0,13.32,2.7264,18.39,8.1685
			l71.8799,77.1555c4.64,4.9698,10.8,7.7069,17.34,7.7069c6.55,0,12.71-2.7371,17.34-7.7069L460.27,93.5337
			c12.9825-13.9354,36.3907-10.0289,43.528,11.7197C506.8871,114.6661,504.4922,125.0248,497.7394,132.2732z"/>
	</g>
</g>
</svg>
